<svg width="16" height="16" viewBox="0 0 16 16" fill="none" xmlns="http://www.w3.org/2000/svg">
<rect width="16" height="16" rx="2" fill="black"/>
<path d="M6 2.5C6 2.22386 6.22386 2 6.5 2H13.5C13.7761 2 14 2.22386 14 2.5V4.5C14 4.77614 13.7761 5 13.5 5H6.5C6.22386 5 6 4.77614 6 4.5V2.5Z" fill="#421F70"/>
<path fill-rule="evenodd" clip-rule="evenodd" d="M7 3V4H13V3H7ZM6.5 2C6.22386 2 6 2.22386 6 2.5V4.5C6 4.77614 6.22386 5 6.5 5H13.5C13.7761 5 14 4.77614 14 4.5V2.5C14 2.22386 13.7761 2 13.5 2H6.5Z" fill="#9747FF"/>
<path d="M6 6.5C6 6.22386 6.22386 6 6.5 6H13.5C13.7761 6 14 6.22386 14 6.5V8.5C14 8.77614 13.7761 9 13.5 9H6.5C6.22386 9 6 8.77614 6 8.5V6.5Z" fill="#D1A8FF" fill-opacity="0.5"/>
<path fill-rule="evenodd" clip-rule="evenodd" d="M7 7V8H13V7H7ZM6.5 6C6.22386 6 6 6.22386 6 6.5V8.5C6 8.77614 6.22386 9 6.5 9H13.5C13.7761 9 14 8.77614 14 8.5V6.5C14 6.22386 13.7761 6 13.5 6H6.5Z" fill="#D1A8FF"/>
<path d="M6 10.5C6 10.2239 6.22386 10 6.5 10H13.5C13.7761 10 14 10.2239 14 10.5V12.5C14 12.7761 13.7761 13 13.5 13H6.5C6.22386 13 6 12.7761 6 12.5V10.5Z" fill="#D1A8FF" fill-opacity="0.5"/>
<path fill-rule="evenodd" clip-rule="evenodd" d="M7 11V12H13V11H7ZM6.5 10C6.22386 10 6 10.2239 6 10.5V12.5C6 12.7761 6.22386 13 6.5 13H13.5C13.7761 13 14 12.7761 14 12.5V10.5C14 10.2239 13.7761 10 13.5 10H6.5Z" fill="#D1A8FF"/>
<path d="M3.28787 5.94431C3.40503 5.82715 3.59497 5.82715 3.71213 5.94431L5.05563 7.28781C5.17279 7.40497 5.17279 7.59492 5.05563 7.71208L3.71213 9.05558C3.59497 9.17274 3.40503 9.17274 3.28787 9.05558L1.94437 7.71208C1.82721 7.59492 1.82721 7.40497 1.94437 7.28781L3.28787 5.94431Z" fill="#D1A8FF" fill-opacity="0.5"/>
<path fill-rule="evenodd" clip-rule="evenodd" d="M3.5 6.43928L2.43934 7.49994L3.5 8.5606L4.56066 7.49994L3.5 6.43928ZM3.71213 5.94431C3.59497 5.82715 3.40503 5.82715 3.28787 5.94431L1.94437 7.28781C1.82721 7.40497 1.82721 7.59492 1.94437 7.71208L3.28787 9.05558C3.40503 9.17274 3.59497 9.17274 3.71213 9.05558L5.05563 7.71208C5.17279 7.59492 5.17279 7.40497 5.05563 7.28781L3.71213 5.94431Z" fill="#D1A8FF"/>
<path d="M1.94443 11.7121C1.82727 11.595 1.82727 11.405 1.94443 11.2879L3.28793 9.94437C3.40509 9.82721 3.59504 9.82721 3.7122 9.94437L5.0557 11.2879C5.17286 11.405 5.17286 11.595 5.0557 11.7121L3.7122 13.0556C3.59504 13.1728 3.40509 13.1728 3.28793 13.0556L1.94443 11.7121Z" fill="#D1A8FF" fill-opacity="0.5"/>
<path fill-rule="evenodd" clip-rule="evenodd" d="M2.43941 11.5L3.50007 12.5607L4.56073 11.5L3.50007 10.4393L2.43941 11.5ZM1.94443 11.2879C1.82727 11.405 1.82727 11.595 1.94443 11.7121L3.28793 13.0556C3.40509 13.1728 3.59504 13.1728 3.7122 13.0556L5.0557 11.7121C5.17286 11.595 5.17286 11.405 5.0557 11.2879L3.7122 9.94437C3.59504 9.82721 3.40509 9.82721 3.28793 9.94437L1.94443 11.2879Z" fill="#D1A8FF"/>
<path d="M3.28787 1.94431C3.40503 1.82715 3.59497 1.82715 3.71213 1.94431L5.05563 3.28781C5.17279 3.40497 5.17279 3.59492 5.05563 3.71208L3.71213 5.05558C3.59497 5.17274 3.40503 5.17274 3.28787 5.05558L1.94437 3.71208C1.82721 3.59492 1.82721 3.40497 1.94437 3.28781L3.28787 1.94431Z" fill="#9747FF"/>
<path fill-rule="evenodd" clip-rule="evenodd" d="M3.5 3.14639L3.14645 3.49994L3.5 3.8535L3.85355 3.49994L3.5 3.14639ZM3.71213 1.94431C3.59497 1.82715 3.40503 1.82715 3.28787 1.94431L1.94437 3.28781C1.82721 3.40497 1.82721 3.59492 1.94437 3.71208L3.28787 5.05558C3.40503 5.17274 3.59497 5.17274 3.71213 5.05558L5.05563 3.71208C5.17279 3.59492 5.17279 3.40497 5.05563 3.28781L3.71213 1.94431Z" fill="#9747FF"/>
<path opacity="0.5" fill-rule="evenodd" clip-rule="evenodd" d="M3.28605 3.50873L2.47659 4.31819L2.68872 4.53032L3.49818 3.72086L4.31123 4.53391L4.52336 4.32178L3.71031 3.50873L4.52436 2.69468L4.31223 2.48254L3.49818 3.2966L2.68772 2.48613L2.47559 2.69827L3.28605 3.50873Z" fill="black"/>
</svg>
